<svg id="图层_1" data-name="图层 1" xmlns="http://www.w3.org/2000/svg" viewBox="0 0 479.64 118.42"><defs><style>.cls-1{fill:#004da0;}</style></defs><title>备件VMI</title><path class="cls-1" d="M178.63,56.4a112.53,112.53,0,0,0-7.63-15h6.74a102.85,102.85,0,0,1,7.82,15ZM181.11,65h6.53a212.67,212.67,0,0,1-9.31,28.46H171.4A224.46,224.46,0,0,0,181.11,65Zm-.7-41.88a103.51,103.51,0,0,1,7.83,15H181.3a112.47,112.47,0,0,0-7.62-15ZM232.8,64.42v15h5.45v5.09H232.4a23.3,23.3,0,0,1-4.06,10.33h-7.13a23.78,23.78,0,0,0,4.46-10.33H193.48l1.69-20H189V59.33h6.53l1.29-15.43h-6.73a193.88,193.88,0,0,0,9.7-22.82h6.54c-1.06,3.08-1.88,5.4-2.48,6.94h32.88v5.09H201.9l-2.67,6.17H232.8v20h6.93v5.09Zm-6.54,0H201.7l-1.28,15h25.84v-15ZM202.1,59.33h24.16v-15H203.39Zm6.14,7.79h6.54a39.75,39.75,0,0,1,4.55,9.56H212.4A41.16,41.16,0,0,0,208.24,67.12Zm12.08-10.49h-6.93a40.56,40.56,0,0,0-4.16-9.56h6.54A39.75,39.75,0,0,1,220.32,56.63Z" transform="translate(-10.84 -19.46)"/><path class="cls-1" d="M274.29,65.11c-1.18-4.78-2.41-9.1-3.66-13V94.8H264.1V54.62q-1.89,10.73-4.26,20.13h-6a311.89,311.89,0,0,0,6.93-34.32h-6V35.34h9.32V21.08h6.53V35.34h8.52v5.09h-8.52v5.4h3.47a168,168,0,0,1,6.14,19.28ZM323.91,94.8H314.5a44.7,44.7,0,0,1-13.07-14.57A44.7,44.7,0,0,1,288.36,94.8H279q13.67-9.26,17.53-18.74H279.54V71H298c.14-1.33.2-2.33.2-3V64.34H282.81V39.05h7.53V33h-10.7V27.94h10.7V21.08h6.53v6.86h9V21.08h6.53v6.86h10.7V33h-10.7v6H320V64.34H304.7V68c0,.67.06,1.67.2,3h18.32v5.09H306.38Q310.25,85.56,323.91,94.8ZM289.35,44.14v5h24.06v-5Zm0,15.11h24.06v-5H289.35Zm7.52-20.2h9V33h-9Z" transform="translate(-10.84 -19.46)"/><path class="cls-1" d="M352.83,43.44h-13V38.35h13.76v-8.1h-4.55q-.7,1.86-2.28,5.4h-6.93a87.48,87.48,0,0,0,5.64-14.57H352l-1.19,4.08h20.5v5.09H360.16v8.1h12.67v5.09H359.56a18.79,18.79,0,0,1-1.19,3.47h5.95a62.79,62.79,0,0,1,9.3,11H366.3A51.7,51.7,0,0,0,357.88,48a29.5,29.5,0,0,1-9.61,10.72H339Q350.45,51.32,352.83,43.44Zm-5.15,16.89h50.9V93.42h-50.9Zm6.54,5v9.1h37.83v-9.1Zm37.83,23v-9H354.22v9Zm12.27-63.17V56.09h-28V25.16Zm-6.53,5.09h-15V51h15Z" transform="translate(-10.84 -19.46)"/><path class="cls-1" d="M436.71,86.94H478.6q-5.14-11.11-11.88-23.06h6.93Q482.26,79.08,488,92h-61.4a364,364,0,0,0,19.8-37.41H424.13V49.53h66.35v5.09H453.35A357.34,357.34,0,0,1,436.71,86.94Zm48.82-56.69H429.08V25.16h56.45Z" transform="translate(-10.84 -19.46)"/><path class="cls-1" d="M176.89,111.67H180v9.26h11.84v-9.26H195v22.14h-3.11v-10H180v10h-3.11Z" transform="translate(-10.84 -19.46)"/><path class="cls-1" d="M214.64,111.67h3.17l8.47,22.14h-3.47l-2.24-6.18h-8.89l-2.23,6.18h-3.28Zm5,13.28-3.5-9.73L212.59,125Z" transform="translate(-10.84 -19.46)"/><path class="cls-1" d="M237.53,111.67h3.12v22.14h-3.12Z" transform="translate(-10.84 -19.46)"/><path class="cls-1" d="M254.76,111.67h3l6.58,11.52,6.59-11.52h2.92l1,22.14h-3.05l-.71-17L265,127.27h-1.56l-6-10.32-.75,16.86h-2.92Z" transform="translate(-10.84 -19.46)"/><path class="cls-1" d="M335.15,131l13.46-16.53H335.8v-2.82h16.61v2.82L339.11,131h13.52v2.82H335.15Z" transform="translate(-10.84 -19.46)"/><path class="cls-1" d="M365.22,111.67h3.11v9.26h11.84v-9.26h3.11v22.14h-3.11v-10H368.33v10h-3.11Z" transform="translate(-10.84 -19.46)"/><path class="cls-1" d="M396.65,111.67h3.11v22.14h-3.11Z" transform="translate(-10.84 -19.46)"/><path class="cls-1" d="M418.41,123.92,411,111.67h3.47l5.64,9.46,5.64-9.46h3.35l-7.5,12.25v9.89h-3.14Z" transform="translate(-10.84 -19.46)"/><path class="cls-1" d="M440.1,111.67h3.12v12.94a13,13,0,0,0,.26,2.74,5.66,5.66,0,0,0,.89,2.14,4,4,0,0,0,1.69,1.38,6.44,6.44,0,0,0,2.67.48,6.36,6.36,0,0,0,2.64-.48,4,4,0,0,0,1.69-1.38,5.66,5.66,0,0,0,.89-2.14,13,13,0,0,0,.26-2.74V111.67h3.12v13.71a11.81,11.81,0,0,1-.52,3.53,7.77,7.77,0,0,1-1.58,2.85,7.19,7.19,0,0,1-2.67,1.91,10.83,10.83,0,0,1-7.66,0,7.44,7.44,0,0,1-2.69-1.91,7.79,7.79,0,0,1-1.59-2.85,11.81,11.81,0,0,1-.52-3.53Z" transform="translate(-10.84 -19.46)"/><path class="cls-1" d="M289.1,111.67h3.12v12.94a13,13,0,0,0,.26,2.74,5.66,5.66,0,0,0,.89,2.14,4,4,0,0,0,1.69,1.38,6.44,6.44,0,0,0,2.67.48,6.36,6.36,0,0,0,2.64-.48,4,4,0,0,0,1.69-1.38,5.66,5.66,0,0,0,.89-2.14,13,13,0,0,0,.26-2.74V111.67h3.12v13.71a11.81,11.81,0,0,1-.52,3.53,7.77,7.77,0,0,1-1.58,2.85,7.19,7.19,0,0,1-2.67,1.91,10.83,10.83,0,0,1-7.66,0,7.44,7.44,0,0,1-2.69-1.91,7.79,7.79,0,0,1-1.59-2.85,11.81,11.81,0,0,1-.52-3.53Z" transform="translate(-10.84 -19.46)"/><path class="cls-1" d="M470.53,111.67h3.14L485.48,129V111.67h3v22.14h-3.12l-11.84-17.33v17.33h-3Z" transform="translate(-10.84 -19.46)"/><path class="cls-1" d="M51.48,97,40.13,86.07S67.91,58.61,73,53.23c2.65-2.79,7.87-3.57,12.66-3.57,11.29,0,24.67-1.09,24.67-1.09s-16.26,5.8-22.68,12.22Z" transform="translate(-10.84 -19.46)"/><polygon class="cls-1" points="118.38 103.56 108.69 113.25 55.76 61.31 65.44 51.62 118.38 103.56"/><polygon class="cls-1" points="104.3 89.87 104.64 104.64 13.77 104.64 13.77 13.77 104.64 13.77 104.64 74.52 118.42 87.72 118.42 0 0 0 0 118.42 118.42 118.42 118.42 103.71 104.3 89.87"/></svg>